<?xml version="1.0" encoding="utf-8"?>
<!-- Generated by IcoMoon.io -->
<!DOCTYPE svg PUBLIC "-//W3C//DTD SVG 1.1//EN" "http://www.w3.org/Graphics/SVG/1.1/DTD/svg11.dtd">
<svg version="1.1" xmlns="http://www.w3.org/2000/svg" xmlns:xlink="http://www.w3.org/1999/xlink" width="200" height="200" viewBox="0 0 200 200">
<path d="M179.259 44.741c-4.338-5.916-10.386-12.832-17.027-19.473s-13.557-12.688-19.473-17.027c-10.073-7.387-14.959-8.241-17.759-8.241h-96.875c-8.616 0-15.625 7.009-15.625 15.625v168.75c0 8.616 7.009 15.625 15.625 15.625h143.75c8.616 0 15.625-7.009 15.625-15.625v-121.875c0-2.799-0.854-7.686-8.241-17.759zM153.393 34.107c5.996 5.996 10.703 11.406 14.176 15.893h-30.069v-30.068c4.489 3.473 9.898 8.179 15.893 14.174zM175 184.375c0 1.694-1.431 3.125-3.125 3.125h-143.75c-1.694 0-3.125-1.431-3.125-3.125v-168.75c0-1.694 1.431-3.125 3.125-3.125 0 0 96.866-0 96.875 0v43.75c0 3.452 2.798 6.25 6.25 6.25h43.75v121.875z" fill="#cb3837"></path>
</svg>
