<?xml version="1.0" encoding="utf-8"?>
<!-- Generated by IcoMoon.io -->
<!DOCTYPE svg PUBLIC "-//W3C//DTD SVG 1.1//EN" "http://www.w3.org/Graphics/SVG/1.1/DTD/svg11.dtd">
<svg version="1.1" xmlns="http://www.w3.org/2000/svg" xmlns:xlink="http://www.w3.org/1999/xlink" width="200" height="200" viewBox="0 0 200 200">
<path d="M187.477 25c0.008 0.007 0.016 0.015 0.023 0.023v149.955c-0.007 0.008-0.015 0.016-0.023 0.023h-174.955c-0.008-0.007-0.016-0.015-0.022-0.023v-149.955c0.007-0.008 0.015-0.016 0.022-0.022h174.955zM187.5 12.5h-175c-6.875 0-12.5 5.625-12.5 12.5v150c0 6.875 5.625 12.5 12.5 12.5h175c6.875 0 12.5-5.625 12.5-12.5v-150c0-6.875-5.625-12.5-12.5-12.5v0z" fill="#00bbb9"></path>
<path d="M162.5 56.25c0 10.355-8.395 18.75-18.75 18.75s-18.75-8.395-18.75-18.75 8.395-18.75 18.75-18.75 18.75 8.395 18.75 18.75z" fill="#00bbb9"></path>
<path d="M175 162.5h-150v-25l43.75-75 50 62.5h12.5l43.75-37.5z" fill="#00bbb9"></path>
</svg>
