<?xml version="1.0" encoding="utf-8"?>
<!-- Generated by IcoMoon.io -->
<!DOCTYPE svg PUBLIC "-//W3C//DTD SVG 1.1//EN" "http://www.w3.org/Graphics/SVG/1.1/DTD/svg11.dtd">
<svg version="1.1" xmlns="http://www.w3.org/2000/svg" xmlns:xlink="http://www.w3.org/1999/xlink" width="200" height="200" viewBox="0 0 200 200">
<path d="M100 66.667c9.208 0 16.667-7.458 16.667-16.667s-7.458-16.667-16.667-16.667-16.667 7.458-16.667 16.667 7.458 16.667 16.667 16.667zM100 83.333c-9.208 0-16.667 7.458-16.667 16.667s7.458 16.667 16.667 16.667 16.667-7.458 16.667-16.667-7.458-16.667-16.667-16.667zM100 133.333c-9.208 0-16.667 7.458-16.667 16.667s7.458 16.667 16.667 16.667 16.667-7.458 16.667-16.667-7.458-16.667-16.667-16.667z" fill="#b0b7c2"></path>
</svg>
