<?xml version="1.0" encoding="utf-8"?>
<!-- Generated by IcoMoon.io -->
<!DOCTYPE svg PUBLIC "-//W3C//DTD SVG 1.1//EN" "http://www.w3.org/Graphics/SVG/1.1/DTD/svg11.dtd">
<svg version="1.1" xmlns="http://www.w3.org/2000/svg" xmlns:xlink="http://www.w3.org/1999/xlink" width="200" height="200" viewBox="0 0 200 200">
<path d="M164.455 115.133c-2.666-2.626-8.577-4.017-17.573-4.135-6.089-0.067-13.418 0.469-21.127 1.548-3.452-1.992-7.010-4.159-9.802-6.769-7.512-7.015-13.783-16.752-17.691-27.46 0.255-1 0.471-1.879 0.673-2.776 0 0 4.232-24.035 3.112-32.161-0.155-1.114-0.249-1.438-0.548-2.304l-0.368-0.944c-1.151-2.655-3.408-5.468-6.946-5.314l-2.132-0.067c-3.946 0-7.161 2.018-8.005 5.034-2.566 9.46 0.082 23.612 4.879 41.941l-1.228 2.986c-3.435 8.374-7.74 16.809-11.539 24.25l-0.494 0.968c-3.996 7.82-7.622 14.459-10.909 20.082l-3.394 1.795c-0.247 0.13-6.063 3.207-7.427 4.032-11.573 6.91-19.243 14.754-20.515 20.98-0.405 1.986-0.104 4.529 1.956 5.705l3.282 1.652c1.424 0.713 2.925 1.075 4.464 1.075 8.243 0 17.813-10.268 30.996-33.275 15.221-4.955 32.549-9.074 47.737-11.346 11.574 6.517 25.809 11.044 34.793 11.044 1.595 0 2.971-0.152 4.088-0.448 1.723-0.456 3.175-1.439 4.061-2.772 1.743-2.623 2.096-6.237 1.623-9.937-0.141-1.098-1.018-2.456-1.966-3.383zM41.337 158.994c1.504-4.11 7.453-12.235 16.251-19.445 0.553-0.448 1.916-1.725 3.163-2.911-9.2 14.673-15.361 20.521-19.414 22.355zM93.444 39.001c2.65 0 4.157 6.679 4.282 12.94s-1.339 10.656-3.156 13.908c-1.504-4.814-2.232-12.402-2.232-17.364 0 0-0.111-9.484 1.105-9.484v0zM77.901 124.511c1.846-3.304 3.766-6.788 5.729-10.484 4.784-9.046 7.804-16.124 10.054-21.943 4.475 8.141 10.048 15.063 16.598 20.608 0.818 0.692 1.684 1.387 2.593 2.080-13.322 2.636-24.837 5.842-34.974 9.739v0zM161.895 123.76c-0.811 0.507-3.135 0.801-4.63 0.801-4.826 0-10.795-2.206-19.165-5.794 3.216-0.238 6.164-0.359 8.809-0.359 4.84 0 6.273-0.021 11.006 1.186s4.793 3.659 3.981 4.166v0z" fill="#da251c"></path>
<path d="M179.259 44.741c-4.338-5.916-10.386-12.832-17.027-19.473s-13.557-12.688-19.473-17.027c-10.073-7.387-14.959-8.241-17.759-8.241h-96.875c-8.616 0-15.625 7.009-15.625 15.625v168.75c0 8.616 7.009 15.625 15.625 15.625h143.75c8.616 0 15.625-7.009 15.625-15.625v-121.875c0-2.799-0.854-7.686-8.241-17.759v0zM153.393 34.107c5.996 5.996 10.703 11.406 14.176 15.893h-30.069v-30.068c4.489 3.473 9.898 8.179 15.893 14.174v0zM175 184.375c0 1.694-1.431 3.125-3.125 3.125h-143.75c-1.694 0-3.125-1.431-3.125-3.125v-168.75c0-1.694 1.431-3.125 3.125-3.125 0 0 96.866-0 96.875 0v43.75c0 3.452 2.798 6.25 6.25 6.25h43.75v121.875z" fill="#da251c"></path>
</svg>
